<mxfile host="app.diagrams.net" agent="Mozilla/5.0 (X11; Linux x86_64; rv:138.0) Gecko/20100101 Firefox/138.0" version="27.0.4">
  <diagram name="Seite-1" id="xhYnY-Ve8MBeuKR5tKBt">
    <mxGraphModel dx="1651" dy="1043" grid="1" gridSize="10" guides="1" tooltips="1" connect="1" arrows="1" fold="1" page="1" pageScale="1" pageWidth="827" pageHeight="1169" math="0" shadow="0">
      <root>
        <mxCell id="0" />
        <mxCell id="1" parent="0" />
        <mxCell id="SmuS--2kzIiVK5j-SNYN-2" value="" style="image;html=1;image=img/lib/clip_art/computers/Server_128x128.png" vertex="1" parent="1">
          <mxGeometry x="580" y="330" width="80" height="80" as="geometry" />
        </mxCell>
        <mxCell id="SmuS--2kzIiVK5j-SNYN-3" value="" style="image;html=1;image=img/lib/clip_art/networking/Switch_128x128.png" vertex="1" parent="1">
          <mxGeometry x="340" y="330" width="80" height="80" as="geometry" />
        </mxCell>
        <mxCell id="SmuS--2kzIiVK5j-SNYN-4" value="" style="image;points=[];aspect=fixed;html=1;align=center;shadow=0;dashed=0;image=img/lib/allied_telesis/security/POE_DVS_Camera.svg;" vertex="1" parent="1">
          <mxGeometry x="120" y="349.9" width="51" height="40.2" as="geometry" />
        </mxCell>
        <mxCell id="SmuS--2kzIiVK5j-SNYN-6" value="" style="endArrow=none;html=1;rounded=0;edgeStyle=orthogonalEdgeStyle;exitX=0.51;exitY=-0.022;exitDx=0;exitDy=0;exitPerimeter=0;entryX=0.25;entryY=0;entryDx=0;entryDy=0;strokeWidth=3;fillColor=#ffe6cc;strokeColor=#d79b00;" edge="1" parent="1" source="SmuS--2kzIiVK5j-SNYN-4" target="SmuS--2kzIiVK5j-SNYN-3">
          <mxGeometry width="50" height="50" relative="1" as="geometry">
            <mxPoint x="390" y="560" as="sourcePoint" />
            <mxPoint x="440" y="510" as="targetPoint" />
          </mxGeometry>
        </mxCell>
        <mxCell id="SmuS--2kzIiVK5j-SNYN-7" value="" style="endArrow=none;html=1;rounded=0;edgeStyle=orthogonalEdgeStyle;exitX=0.5;exitY=0;exitDx=0;exitDy=0;entryX=0.5;entryY=0;entryDx=0;entryDy=0;strokeWidth=3;fillColor=#ffe6cc;strokeColor=#d79b00;" edge="1" parent="1" source="SmuS--2kzIiVK5j-SNYN-3" target="SmuS--2kzIiVK5j-SNYN-2">
          <mxGeometry width="50" height="50" relative="1" as="geometry">
            <mxPoint x="380" y="479" as="sourcePoint" />
            <mxPoint x="594" y="460" as="targetPoint" />
          </mxGeometry>
        </mxCell>
        <mxCell id="SmuS--2kzIiVK5j-SNYN-8" value="Baumer&lt;br&gt;camera" style="text;html=1;align=center;verticalAlign=middle;resizable=0;points=[];autosize=1;strokeColor=none;fillColor=none;" vertex="1" parent="1">
          <mxGeometry x="110.5" y="383" width="70" height="40" as="geometry" />
        </mxCell>
        <mxCell id="SmuS--2kzIiVK5j-SNYN-9" value="Gigabit PoE&lt;br&gt;switch" style="text;html=1;align=center;verticalAlign=middle;resizable=0;points=[];autosize=1;strokeColor=none;fillColor=none;" vertex="1" parent="1">
          <mxGeometry x="337" y="383" width="90" height="40" as="geometry" />
        </mxCell>
        <mxCell id="SmuS--2kzIiVK5j-SNYN-10" value="Shuttle PC" style="text;html=1;align=center;verticalAlign=middle;resizable=0;points=[];autosize=1;strokeColor=none;fillColor=none;" vertex="1" parent="1">
          <mxGeometry x="580" y="393" width="80" height="30" as="geometry" />
        </mxCell>
        <mxCell id="SmuS--2kzIiVK5j-SNYN-11" value="ethernet cable" style="text;html=1;align=center;verticalAlign=middle;resizable=0;points=[];autosize=1;strokeColor=none;fillColor=none;" vertex="1" parent="1">
          <mxGeometry x="440" y="290" width="110" height="30" as="geometry" />
        </mxCell>
        <mxCell id="SmuS--2kzIiVK5j-SNYN-12" value="ethernet cable" style="text;html=1;align=center;verticalAlign=middle;resizable=0;points=[];autosize=1;strokeColor=none;fillColor=none;" vertex="1" parent="1">
          <mxGeometry x="190" y="290" width="110" height="30" as="geometry" />
        </mxCell>
        <mxCell id="SmuS--2kzIiVK5j-SNYN-13" value="&lt;div&gt;network port&lt;/div&gt;&lt;div&gt;(e.g eth1)&lt;/div&gt;" style="text;html=1;align=center;verticalAlign=middle;resizable=0;points=[];autosize=1;strokeColor=none;fillColor=none;" vertex="1" parent="1">
          <mxGeometry x="610" y="290" width="100" height="40" as="geometry" />
        </mxCell>
      </root>
    </mxGraphModel>
  </diagram>
</mxfile>
